<mxfile host="app.diagrams.net" agent="Mozilla/5.0 (Windows NT 10.0; Win64; x64) AppleWebKit/537.36 (KHTML, like Gecko) Chrome/127.0.0.0 Safari/537.36" version="24.7.6">
  <diagram name="Page-1" id="PZNZ16DnLTzqI1kYxe6R">
    <mxGraphModel dx="1050" dy="505" grid="1" gridSize="10" guides="1" tooltips="1" connect="1" arrows="1" fold="1" page="1" pageScale="1" pageWidth="850" pageHeight="1100" math="0" shadow="0">
      <root>
        <mxCell id="0" />
        <mxCell id="1" parent="0" />
        <mxCell id="CSYePLHfyMkPTrYN2hg7-1" value="Student" style="shape=umlActor;verticalLabelPosition=bottom;verticalAlign=top;html=1;outlineConnect=0;" vertex="1" parent="1">
          <mxGeometry x="50" y="50" width="30" height="60" as="geometry" />
        </mxCell>
        <mxCell id="CSYePLHfyMkPTrYN2hg7-2" value="Email system" style="rounded=0;whiteSpace=wrap;html=1;" vertex="1" parent="1">
          <mxGeometry x="850" y="55" width="120" height="50" as="geometry" />
        </mxCell>
        <mxCell id="CSYePLHfyMkPTrYN2hg7-3" value="Student portal" style="rounded=0;whiteSpace=wrap;html=1;" vertex="1" parent="1">
          <mxGeometry x="640" y="55" width="120" height="50" as="geometry" />
        </mxCell>
        <mxCell id="CSYePLHfyMkPTrYN2hg7-4" value="Bank system" style="rounded=0;whiteSpace=wrap;html=1;" vertex="1" parent="1">
          <mxGeometry x="425" y="55" width="120" height="50" as="geometry" />
        </mxCell>
        <mxCell id="CSYePLHfyMkPTrYN2hg7-5" value="Registration system" style="rounded=0;whiteSpace=wrap;html=1;" vertex="1" parent="1">
          <mxGeometry x="220" y="55" width="120" height="50" as="geometry" />
        </mxCell>
        <mxCell id="CSYePLHfyMkPTrYN2hg7-8" value="" style="html=1;points=[[0,0,0,0,5],[0,1,0,0,-5],[1,0,0,0,5],[1,1,0,0,-5]];perimeter=orthogonalPerimeter;outlineConnect=0;targetShapes=umlLifeline;portConstraint=eastwest;newEdgeStyle={&quot;curved&quot;:0,&quot;rounded&quot;:0};" vertex="1" parent="1">
          <mxGeometry x="60" y="140" width="10" height="430" as="geometry" />
        </mxCell>
        <mxCell id="CSYePLHfyMkPTrYN2hg7-9" value="" style="html=1;points=[[0,0,0,0,5],[0,1,0,0,-5],[1,0,0,0,5],[1,1,0,0,-5]];perimeter=orthogonalPerimeter;outlineConnect=0;targetShapes=umlLifeline;portConstraint=eastwest;newEdgeStyle={&quot;curved&quot;:0,&quot;rounded&quot;:0};" vertex="1" parent="1">
          <mxGeometry x="275" y="140" width="10" height="280" as="geometry" />
        </mxCell>
        <mxCell id="CSYePLHfyMkPTrYN2hg7-10" value="" style="html=1;points=[[0,0,0,0,5],[0,1,0,0,-5],[1,0,0,0,5],[1,1,0,0,-5]];perimeter=orthogonalPerimeter;outlineConnect=0;targetShapes=umlLifeline;portConstraint=eastwest;newEdgeStyle={&quot;curved&quot;:0,&quot;rounded&quot;:0};" vertex="1" parent="1">
          <mxGeometry x="905" y="368" width="10" height="100" as="geometry" />
        </mxCell>
        <mxCell id="CSYePLHfyMkPTrYN2hg7-11" value="" style="html=1;points=[[0,0,0,0,5],[0,1,0,0,-5],[1,0,0,0,5],[1,1,0,0,-5]];perimeter=orthogonalPerimeter;outlineConnect=0;targetShapes=umlLifeline;portConstraint=eastwest;newEdgeStyle={&quot;curved&quot;:0,&quot;rounded&quot;:0};" vertex="1" parent="1">
          <mxGeometry x="695" y="320" width="10" height="60" as="geometry" />
        </mxCell>
        <mxCell id="CSYePLHfyMkPTrYN2hg7-12" value="" style="html=1;points=[[0,0,0,0,5],[0,1,0,0,-5],[1,0,0,0,5],[1,1,0,0,-5]];perimeter=orthogonalPerimeter;outlineConnect=0;targetShapes=umlLifeline;portConstraint=eastwest;newEdgeStyle={&quot;curved&quot;:0,&quot;rounded&quot;:0};" vertex="1" parent="1">
          <mxGeometry x="480" y="140" width="10" height="100" as="geometry" />
        </mxCell>
        <mxCell id="CSYePLHfyMkPTrYN2hg7-15" value="" style="endArrow=classic;html=1;rounded=0;" edge="1" parent="1" target="CSYePLHfyMkPTrYN2hg7-9">
          <mxGeometry width="50" height="50" relative="1" as="geometry">
            <mxPoint x="70" y="150" as="sourcePoint" />
            <mxPoint x="120" y="100" as="targetPoint" />
          </mxGeometry>
        </mxCell>
        <mxCell id="CSYePLHfyMkPTrYN2hg7-17" value="Submit registration details" style="text;html=1;align=center;verticalAlign=middle;resizable=0;points=[];autosize=1;strokeColor=none;fillColor=none;" vertex="1" parent="1">
          <mxGeometry x="70" y="128" width="160" height="30" as="geometry" />
        </mxCell>
        <mxCell id="CSYePLHfyMkPTrYN2hg7-19" value="" style="endArrow=classic;html=1;rounded=0;" edge="1" parent="1" target="CSYePLHfyMkPTrYN2hg7-12">
          <mxGeometry width="50" height="50" relative="1" as="geometry">
            <mxPoint x="285" y="170" as="sourcePoint" />
            <mxPoint x="490" y="170" as="targetPoint" />
          </mxGeometry>
        </mxCell>
        <mxCell id="CSYePLHfyMkPTrYN2hg7-20" value="Verify payment" style="text;html=1;align=center;verticalAlign=middle;resizable=0;points=[];autosize=1;strokeColor=none;fillColor=none;" vertex="1" parent="1">
          <mxGeometry x="340" y="148" width="100" height="30" as="geometry" />
        </mxCell>
        <mxCell id="CSYePLHfyMkPTrYN2hg7-21" value="" style="endArrow=classic;html=1;rounded=0;" edge="1" parent="1">
          <mxGeometry width="50" height="50" relative="1" as="geometry">
            <mxPoint x="480" y="200" as="sourcePoint" />
            <mxPoint x="285" y="200" as="targetPoint" />
          </mxGeometry>
        </mxCell>
        <mxCell id="CSYePLHfyMkPTrYN2hg7-22" value="Confirm payment" style="text;html=1;align=center;verticalAlign=middle;resizable=0;points=[];autosize=1;strokeColor=none;fillColor=none;" vertex="1" parent="1">
          <mxGeometry x="305" y="178" width="110" height="30" as="geometry" />
        </mxCell>
        <mxCell id="CSYePLHfyMkPTrYN2hg7-26" value="" style="endArrow=classic;html=1;rounded=0;" edge="1" parent="1" target="CSYePLHfyMkPTrYN2hg7-9">
          <mxGeometry relative="1" as="geometry">
            <mxPoint x="285" y="270" as="sourcePoint" />
            <mxPoint x="350" y="310" as="targetPoint" />
            <Array as="points">
              <mxPoint x="350" y="270" />
              <mxPoint x="350" y="320" />
            </Array>
          </mxGeometry>
        </mxCell>
        <mxCell id="CSYePLHfyMkPTrYN2hg7-33" value="Generate registration&amp;nbsp;&lt;div&gt;number&lt;/div&gt;" style="edgeLabel;html=1;align=center;verticalAlign=middle;resizable=0;points=[];" vertex="1" connectable="0" parent="CSYePLHfyMkPTrYN2hg7-26">
          <mxGeometry x="0.0378" y="2" relative="1" as="geometry">
            <mxPoint as="offset" />
          </mxGeometry>
        </mxCell>
        <mxCell id="CSYePLHfyMkPTrYN2hg7-28" value="" style="endArrow=classic;html=1;rounded=0;" edge="1" parent="1" target="CSYePLHfyMkPTrYN2hg7-9">
          <mxGeometry relative="1" as="geometry">
            <mxPoint x="285" y="220" as="sourcePoint" />
            <mxPoint x="350" y="260" as="targetPoint" />
            <Array as="points">
              <mxPoint x="350" y="220" />
              <mxPoint x="350" y="260" />
            </Array>
          </mxGeometry>
        </mxCell>
        <mxCell id="CSYePLHfyMkPTrYN2hg7-31" value="Update student status&amp;nbsp;&lt;div&gt;to registered&lt;/div&gt;" style="edgeLabel;html=1;align=center;verticalAlign=middle;resizable=0;points=[];" vertex="1" connectable="0" parent="CSYePLHfyMkPTrYN2hg7-28">
          <mxGeometry x="0.0282" y="-4" relative="1" as="geometry">
            <mxPoint as="offset" />
          </mxGeometry>
        </mxCell>
        <mxCell id="CSYePLHfyMkPTrYN2hg7-34" value="" style="endArrow=classic;html=1;rounded=0;" edge="1" parent="1" target="CSYePLHfyMkPTrYN2hg7-11">
          <mxGeometry width="50" height="50" relative="1" as="geometry">
            <mxPoint x="285" y="360" as="sourcePoint" />
            <mxPoint x="335" y="310" as="targetPoint" />
            <Array as="points">
              <mxPoint x="520" y="360" />
            </Array>
          </mxGeometry>
        </mxCell>
        <mxCell id="CSYePLHfyMkPTrYN2hg7-35" value="Update student portal with registration number" style="text;html=1;align=center;verticalAlign=middle;resizable=0;points=[];autosize=1;strokeColor=none;fillColor=none;" vertex="1" parent="1">
          <mxGeometry x="365" y="338" width="270" height="30" as="geometry" />
        </mxCell>
        <mxCell id="CSYePLHfyMkPTrYN2hg7-36" value="" style="endArrow=classic;html=1;rounded=0;" edge="1" parent="1" target="CSYePLHfyMkPTrYN2hg7-10">
          <mxGeometry width="50" height="50" relative="1" as="geometry">
            <mxPoint x="285" y="400" as="sourcePoint" />
            <mxPoint x="490" y="400" as="targetPoint" />
          </mxGeometry>
        </mxCell>
        <mxCell id="CSYePLHfyMkPTrYN2hg7-37" value="Send registration confirmation email with registration number" style="text;html=1;align=center;verticalAlign=middle;resizable=0;points=[];autosize=1;strokeColor=none;fillColor=none;" vertex="1" parent="1">
          <mxGeometry x="375" y="378" width="350" height="30" as="geometry" />
        </mxCell>
        <mxCell id="CSYePLHfyMkPTrYN2hg7-38" value="" style="endArrow=classic;html=1;rounded=0;" edge="1" parent="1">
          <mxGeometry width="50" height="50" relative="1" as="geometry">
            <mxPoint x="905" y="450" as="sourcePoint" />
            <mxPoint x="70" y="450" as="targetPoint" />
          </mxGeometry>
        </mxCell>
        <mxCell id="CSYePLHfyMkPTrYN2hg7-39" value="Send registration confirmation email with registration number" style="text;html=1;align=center;verticalAlign=middle;resizable=0;points=[];autosize=1;strokeColor=none;fillColor=none;" vertex="1" parent="1">
          <mxGeometry x="355" y="420" width="350" height="30" as="geometry" />
        </mxCell>
        <mxCell id="CSYePLHfyMkPTrYN2hg7-40" value="" style="html=1;points=[[0,0,0,0,5],[0,1,0,0,-5],[1,0,0,0,5],[1,1,0,0,-5]];perimeter=orthogonalPerimeter;outlineConnect=0;targetShapes=umlLifeline;portConstraint=eastwest;newEdgeStyle={&quot;curved&quot;:0,&quot;rounded&quot;:0};" vertex="1" parent="1">
          <mxGeometry x="695" y="470" width="10" height="50" as="geometry" />
        </mxCell>
        <mxCell id="CSYePLHfyMkPTrYN2hg7-42" value="" style="endArrow=classic;html=1;rounded=0;" edge="1" parent="1" target="CSYePLHfyMkPTrYN2hg7-40">
          <mxGeometry width="50" height="50" relative="1" as="geometry">
            <mxPoint x="70" y="494.5" as="sourcePoint" />
            <mxPoint x="275" y="494.5" as="targetPoint" />
          </mxGeometry>
        </mxCell>
        <mxCell id="CSYePLHfyMkPTrYN2hg7-43" value="Check registration status and registration number" style="text;html=1;align=center;verticalAlign=middle;resizable=0;points=[];autosize=1;strokeColor=none;fillColor=none;" vertex="1" parent="1">
          <mxGeometry x="295" y="468" width="290" height="30" as="geometry" />
        </mxCell>
        <mxCell id="CSYePLHfyMkPTrYN2hg7-45" value="" style="endArrow=none;dashed=1;html=1;rounded=0;exitX=0.62;exitY=-0.008;exitDx=0;exitDy=0;exitPerimeter=0;" edge="1" parent="1" source="CSYePLHfyMkPTrYN2hg7-9">
          <mxGeometry width="50" height="50" relative="1" as="geometry">
            <mxPoint x="230" y="155" as="sourcePoint" />
            <mxPoint x="280" y="105" as="targetPoint" />
          </mxGeometry>
        </mxCell>
        <mxCell id="CSYePLHfyMkPTrYN2hg7-47" value="" style="endArrow=none;dashed=1;html=1;rounded=0;" edge="1" parent="1">
          <mxGeometry width="50" height="50" relative="1" as="geometry">
            <mxPoint x="280" y="570" as="sourcePoint" />
            <mxPoint x="280" y="420" as="targetPoint" />
          </mxGeometry>
        </mxCell>
        <mxCell id="CSYePLHfyMkPTrYN2hg7-48" value="" style="endArrow=none;dashed=1;html=1;rounded=0;exitX=1;exitY=0;exitDx=0;exitDy=5;exitPerimeter=0;" edge="1" parent="1" source="CSYePLHfyMkPTrYN2hg7-10">
          <mxGeometry width="50" height="50" relative="1" as="geometry">
            <mxPoint x="865" y="155" as="sourcePoint" />
            <mxPoint x="915" y="105" as="targetPoint" />
          </mxGeometry>
        </mxCell>
        <mxCell id="CSYePLHfyMkPTrYN2hg7-49" value="" style="endArrow=none;dashed=1;html=1;rounded=0;exitX=1;exitY=0;exitDx=0;exitDy=5;exitPerimeter=0;" edge="1" parent="1" source="CSYePLHfyMkPTrYN2hg7-11">
          <mxGeometry width="50" height="50" relative="1" as="geometry">
            <mxPoint x="655" y="155" as="sourcePoint" />
            <mxPoint x="705" y="105" as="targetPoint" />
          </mxGeometry>
        </mxCell>
        <mxCell id="CSYePLHfyMkPTrYN2hg7-50" value="" style="endArrow=none;dashed=1;html=1;rounded=0;exitX=1;exitY=0;exitDx=0;exitDy=5;exitPerimeter=0;" edge="1" parent="1" source="CSYePLHfyMkPTrYN2hg7-12">
          <mxGeometry width="50" height="50" relative="1" as="geometry">
            <mxPoint x="440" y="155" as="sourcePoint" />
            <mxPoint x="490" y="105" as="targetPoint" />
          </mxGeometry>
        </mxCell>
        <mxCell id="CSYePLHfyMkPTrYN2hg7-51" value="" style="endArrow=none;dashed=1;html=1;rounded=0;" edge="1" parent="1">
          <mxGeometry width="50" height="50" relative="1" as="geometry">
            <mxPoint x="490" y="572" as="sourcePoint" />
            <mxPoint x="490" y="240" as="targetPoint" />
          </mxGeometry>
        </mxCell>
        <mxCell id="CSYePLHfyMkPTrYN2hg7-52" value="" style="endArrow=none;dashed=1;html=1;rounded=0;" edge="1" parent="1" source="CSYePLHfyMkPTrYN2hg7-40">
          <mxGeometry width="50" height="50" relative="1" as="geometry">
            <mxPoint x="655" y="430" as="sourcePoint" />
            <mxPoint x="705" y="380" as="targetPoint" />
          </mxGeometry>
        </mxCell>
        <mxCell id="CSYePLHfyMkPTrYN2hg7-53" value="" style="endArrow=none;dashed=1;html=1;rounded=0;" edge="1" parent="1">
          <mxGeometry width="50" height="50" relative="1" as="geometry">
            <mxPoint x="705" y="580" as="sourcePoint" />
            <mxPoint x="705" y="520" as="targetPoint" />
          </mxGeometry>
        </mxCell>
        <mxCell id="CSYePLHfyMkPTrYN2hg7-54" value="" style="endArrow=none;dashed=1;html=1;rounded=0;" edge="1" parent="1">
          <mxGeometry width="50" height="50" relative="1" as="geometry">
            <mxPoint x="915" y="570" as="sourcePoint" />
            <mxPoint x="915" y="470" as="targetPoint" />
          </mxGeometry>
        </mxCell>
        <mxCell id="CSYePLHfyMkPTrYN2hg7-55" value="" style="endArrow=none;dashed=1;html=1;rounded=0;" edge="1" parent="1">
          <mxGeometry width="50" height="50" relative="1" as="geometry">
            <mxPoint x="70" y="580.7999877929688" as="sourcePoint" />
            <mxPoint x="70" y="128" as="targetPoint" />
          </mxGeometry>
        </mxCell>
      </root>
    </mxGraphModel>
  </diagram>
</mxfile>
